<svg width="25" height="25" viewBox="0 0 25 25" fill="none" xmlns="http://www.w3.org/2000/svg">
    <path d="M12.5 1.5625C6.45996 1.5625 1.5625 6.45996 1.5625 12.5C1.5625 18.54 6.45996 23.4375 12.5 23.4375C18.54 23.4375 23.4375 18.54 23.4375 12.5C23.4375 6.45996 18.54 1.5625 12.5 1.5625ZM17.2241 8.92822L12.0825 16.0571C12.0107 16.1574 11.9159 16.2392 11.8062 16.2955C11.6964 16.3519 11.5748 16.3813 11.4514 16.3813C11.328 16.3813 11.2064 16.3519 11.0967 16.2955C10.9869 16.2392 10.8922 16.1574 10.8203 16.0571L7.77588 11.8384C7.68311 11.709 7.77588 11.5283 7.93457 11.5283H9.07959C9.32861 11.5283 9.56543 11.6479 9.71191 11.853L11.4502 14.2651L15.2881 8.94287C15.4346 8.74023 15.6689 8.61816 15.9204 8.61816H17.0654C17.2241 8.61816 17.3169 8.79883 17.2241 8.92822Z" fill="#43CE20"/>
</svg>
