<svg width="20" height="20" viewBox="0 0 20 20" fill="none" xmlns="http://www.w3.org/2000/svg">
<g clip-path="url(#clip0)">
<path d="M3.58253 18.5625C3.48503 19.1175 4.03253 19.5512 4.51503 19.3037L10.0025 16.4837L15.4888 19.3037C15.9713 19.5512 16.5188 19.1175 16.4213 18.5637L15.3838 12.6512L19.7875 8.45624C20.1988 8.06374 19.985 7.34624 19.4338 7.26874L13.3113 6.39875L10.5813 0.989995C10.5293 0.880356 10.4472 0.787724 10.3447 0.722861C10.2421 0.657998 10.1233 0.623566 10.0019 0.623566C9.88055 0.623566 9.7617 0.657998 9.65914 0.722861C9.55658 0.787724 9.47453 0.880356 9.42253 0.989995L6.69253 6.39999L0.570026 7.26999C0.0187758 7.3475 -0.194974 8.06499 0.216276 8.45749L4.62003 12.6525L3.58253 18.565V18.5625ZM9.71378 15.1037L5.10628 17.4712L5.97378 12.525C5.9941 12.4111 5.98615 12.294 5.95062 12.184C5.91509 12.0739 5.85308 11.9742 5.77003 11.8937L2.13753 8.43124L7.20253 7.71125C7.30741 7.69541 7.40689 7.65438 7.49244 7.59168C7.578 7.52899 7.64708 7.44648 7.69378 7.35124L10.0025 2.77875L12.31 7.35124C12.3567 7.44648 12.4258 7.52899 12.5114 7.59168C12.5969 7.65438 12.6964 7.69541 12.8013 7.71125L17.8663 8.42999L14.2338 11.8925C14.1504 11.973 14.0882 12.0729 14.0527 12.1832C14.0172 12.2936 14.0094 12.4109 14.03 12.525L14.8975 17.4712L10.29 15.1037C10.2009 15.0578 10.1021 15.0338 10.0019 15.0338C9.90166 15.0338 9.80287 15.0578 9.71378 15.1037Z" fill="#4B92C5"/>
</g>
<defs>
<clipPath id="clip0">
<rect width="20" height="20" fill="white"/>
</clipPath>
</defs>
</svg>
