<svg width="21" height="22" viewBox="0 0 21 22" fill="none" xmlns="http://www.w3.org/2000/svg">
<path d="M15.125 2.74999H18.625C18.8571 2.74999 19.0796 2.84657 19.2437 3.01848C19.4078 3.19038 19.5 3.42354 19.5 3.66666V18.3333C19.5 18.5764 19.4078 18.8096 19.2437 18.9815C19.0796 19.1534 18.8571 19.25 18.625 19.25H2.875C2.64294 19.25 2.42038 19.1534 2.25628 18.9815C2.09219 18.8096 2 18.5764 2 18.3333V3.66666C2 3.42354 2.09219 3.19038 2.25628 3.01848C2.42038 2.84657 2.64294 2.74999 2.875 2.74999H6.375V0.916656H8.125V2.74999H13.375V0.916656H15.125V2.74999ZM3.75 8.24999V17.4167H17.75V8.24999H3.75ZM5.5 10.0833H7.25V11.9167H5.5V10.0833ZM5.5 13.75H7.25V15.5833H5.5V13.75ZM9 10.0833H16V11.9167H9V10.0833ZM9 13.75H13.375V15.5833H9V13.75Z" fill="#4B92C5"/>
</svg>
