<svg width="26" height="26" viewBox="0 0 26 26" fill="none" xmlns="http://www.w3.org/2000/svg">
<path d="M12.2383 3.85938H13.7617C13.8971 3.85938 13.9648 3.92708 13.9648 4.0625V21.9375C13.9648 22.0729 13.8971 22.1406 13.7617 22.1406H12.2383C12.1029 22.1406 12.0352 22.0729 12.0352 21.9375V4.0625C12.0352 3.92708 12.1029 3.85938 12.2383 3.85938Z" fill="#4B92C5"/>
<path d="M4.46875 12.0352H21.5312C21.6667 12.0352 21.7344 12.1029 21.7344 12.2383V13.7617C21.7344 13.8971 21.6667 13.9648 21.5312 13.9648H4.46875C4.33333 13.9648 4.26562 13.8971 4.26562 13.7617V12.2383C4.26562 12.1029 4.33333 12.0352 4.46875 12.0352Z" fill="#4B92C5"/>
</svg>
